<svg width="512" height="512" viewBox="0 0 512 512" fill="none" xmlns="http://www.w3.org/2000/svg">
  <rect width="512" height="512" rx="96" fill="#F5F7FA"/>
  <rect x="92" y="92" width="328" height="328" rx="48" fill="#FFFFFF" stroke="#D9E1EA" stroke-width="12"/>
  <path d="M152 152H360" stroke="#C4D0DD" stroke-width="10"/>
  <path d="M152 224H360" stroke="#C4D0DD" stroke-width="10"/>
  <path d="M152 296H360" stroke="#C4D0DD" stroke-width="10"/>
  <path d="M152 368H360" stroke="#C4D0DD" stroke-width="10"/>
  <path d="M152 152V368" stroke="#C4D0DD" stroke-width="10"/>
  <path d="M224 152V368" stroke="#C4D0DD" stroke-width="10"/>
  <path d="M296 152V368" stroke="#C4D0DD" stroke-width="10"/>
  <path d="M368 152V368" stroke="#C4D0DD" stroke-width="10"/>
  <circle cx="152" cy="152" r="18" fill="#2E425C"/>
  <circle cx="224" cy="152" r="18" fill="#8AA0B8"/>
  <circle cx="296" cy="152" r="18" fill="#2E425C"/>
  <circle cx="224" cy="224" r="18" fill="#2E425C"/>
  <circle cx="296" cy="224" r="18" fill="#2E425C"/>
  <circle cx="368" cy="224" r="18" fill="#8AA0B8"/>
  <circle cx="152" cy="296" r="18" fill="#8AA0B8"/>
  <circle cx="296" cy="296" r="18" fill="#2E425C"/>
  <circle cx="368" cy="296" r="18" fill="#2E425C"/>
  <circle cx="152" cy="368" r="18" fill="#2E425C"/>
  <circle cx="224" cy="368" r="18" fill="#8AA0B8"/>
  <circle cx="368" cy="368" r="18" fill="#2E425C"/>
  <path d="M152 152L224 224L296 224L368 296" stroke="#4C6280" stroke-width="12" stroke-linecap="round" stroke-linejoin="round"/>
  <path d="M152 368L296 296L368 224" stroke="#7C95B1" stroke-width="12" stroke-linecap="round" stroke-linejoin="round"/>
</svg>
