<svg width="220" height="220" viewBox="0 0 220 220" fill="none" xmlns="http://www.w3.org/2000/svg">
  <rect width="220" height="220" rx="40" fill="#F5F7FA"/>
  <path d="M55 86L110 56L165 86V134L110 164L55 134V86Z" fill="#E7ECF3" stroke="#4C6280" stroke-width="8"/>
  <path d="M110 56V164" stroke="#4C6280" stroke-width="8"/>
  <path d="M55 86L110 116L165 86" stroke="#4C6280" stroke-width="8"/>
  <path d="M55 134L110 104L165 134" stroke="#4C6280" stroke-width="8"/>
  <circle cx="55" cy="86" r="10" fill="#2E425C"/>
  <circle cx="110" cy="56" r="10" fill="#2E425C"/>
  <circle cx="165" cy="86" r="10" fill="#2E425C"/>
  <circle cx="55" cy="134" r="10" fill="#2E425C"/>
  <circle cx="110" cy="116" r="10" fill="#7C95B1"/>
  <circle cx="165" cy="134" r="10" fill="#2E425C"/>
  <circle cx="110" cy="164" r="10" fill="#2E425C"/>
  <path d="M33 38C66 18 108 17 145 34C174 47 194 71 203 101" stroke="#7C95B1" stroke-width="7" stroke-linecap="round"/>
  <circle cx="202" cy="101" r="7" fill="#7C95B1"/>
</svg>
